<svg width="86" height="16" viewBox="0 0 86 16" fill="none" xmlns="http://www.w3.org/2000/svg">
<path d="M3.636 15.3363L5.562 9.61227L0.918 6.49827H6.606L8.64 0.360272L10.71 6.49827H16.362L11.718 9.61227L13.68 15.3363L8.64 11.6823L3.636 15.3363ZM20.9153 15.3363L22.8413 9.61227L18.1973 6.49827H23.8853L25.9193 0.360272L27.9893 6.49827H33.6413L28.9973 9.61227L30.9593 15.3363L25.9193 11.6823L20.9153 15.3363ZM38.1946 15.3363L40.1206 9.61227L35.4766 6.49827H41.1646L43.1986 0.360272L45.2686 6.49827H50.9206L46.2766 9.61227L48.2386 15.3363L43.1986 11.6823L38.1946 15.3363ZM55.4739 15.3363L57.3999 9.61227L52.7559 6.49827H58.4439L60.4779 0.360272L62.5479 6.49827H68.1999L63.5559 9.61227L65.5179 15.3363L60.4779 11.6823L55.4739 15.3363ZM72.7532 15.3363L74.6792 9.61227L70.0352 6.49827H75.7232L77.7572 0.360272L79.8272 6.49827H85.4792L80.8352 9.61227L82.7972 15.3363L77.7572 11.6823L72.7532 15.3363Z" fill="#FCC032"/>
</svg>
